<svg version="1.1" xmlns="http://www.w3.org/2000/svg" xmlns:xlink="http://www.w3.org/1999/xlink" width="1202" height="784"><defs><clipPath id="kXTSCLsuNuIu"><path fill="none" stroke="none" d=" M 0 0 L 1202 0 L 1202 784 L 0 784 L 0 0 Z"/></clipPath></defs><g transform="scale(1,1)" clip-path="url(#kXTSCLsuNuIu)"><g><rect fill="rgb(255,255,255)" stroke="none" x="0" y="0" width="1202" height="784" fill-opacity="1"/><path fill="none" stroke="rgb(46,125,50)" paint-order="fill stroke markers" d=" M 1 566.4328183476423 L 1 566.7989274672105 L 1 566.7989274672105 L 2 567.1597351696807 L 2 567.1597351696806 L 3.0000000000001137 567.5152297710149 L 3.0000000000001137 567.5152297710149 L 4.000000000000114 567.8653997592295 L 4.000000000000114 567.8653997592294 L 5.000000000000114 568.2102337947678 L 5.000000000000114 568.2102337947676 L 6.000000000000114 568.5497207108672 L 6.000000000000114 568.5497207108672 L 7 568.883849513921 L 7 568.883849513921 L 8 569.2126093838345 L 8 569.2126093838344 L 9.000000000000114 569.5359896743748 L 9.000000000000114 569.5359896743748 L 9.999999999999886 569.8539799135162 L 9.999999999999886 569.8539799135161 L 11 570.166569803779 L 11 570.166569803779 L 12 570.473749222563 L 12 570.473749222563 L 13 570.7755082224754 L 13 570.7755082224754 L 14 571.0718370316529 L 14 571.0718370316529 L 15.000000000000114 571.3627260540777 L 15.000000000000114 571.3627260540777 L 16.000000000000114 571.6481658698892 L 16.000000000000114 571.6481658698892 L 17.000000000000114 571.9281472356884 L 17.000000000000114 571.9281472356884 L 18.000000000000114 572.2026610848368 L 18.000000000000114 572.2026610848367 L 19 572.471698527751 L 19 572.471698527751 L 20 572.73525085219 L 20 572.73525085219 L 21 572.9933095235375 L 21 572.9933095235374 L 21.999999999999886 573.245866185078 L 21.999999999999886 573.245866185078 L 23 573.4929126582676 L 23 573.4929126582676 L 24 573.7344409429993 L 24 573.7344409429992 L 25 573.970443217861 L 25 573.970443217861 L 26 574.2009118403897 L 26 574.2009118403897 L 27 574.425839347319 L 27 574.425839347319 L 28.000000000000114 574.6452184548199 L 28.000000000000114 574.6452184548198 L 29.000000000000114 574.8590420587376 L 29.000000000000114 574.8590420587375 L 30.000000000000114 575.0673032348211 L 30.000000000000114 575.0673032348211 L 31.000000000000114 575.2699952389478 L 31.000000000000114 575.2699952389478 L 32 575.4671115073411 L 32 575.467111507341 L 33 575.6586456567838 L 33 575.6586456567838 L 34.000000000000114 575.8445914848246 L 34.000000000000114 575.8445914848246 L 34.999999999999886 576.0249429699787 L 34.999999999999886 576.0249429699787 L 36 576.1996942719229 L 36 576.1996942719229 L 37 576.3688397316848 L 37 576.3688397316848 L 38 576.532373871826 L 38 576.532373871826 L 39 576.6902913966197 L 39 576.6902913966196 L 40.000000000000114 576.8425871922216 L 40.000000000000114 576.8425871922216 L 41.000000000000114 576.9892563268361 L 41.000000000000114 576.9892563268361 L 42.000000000000114 577.1302940508759 L 42.000000000000114 577.1302940508758 L 43.000000000000114 577.2656957971155 L 43.000000000000114 577.2656957971155 L 44 577.3954571808395 L 44 577.3954571808395 L 45 577.5195739999842 L 45 577.5195739999841 L 46 577.6380422352739 L 46 577.6380422352739 L 46.999999999999886 577.7508580503512 L 46.999999999999886 577.7508580503512 L 48 577.8580177919009 L 48 577.8580177919009 L 49 577.9595179897684 L 49 577.9595179897684 L 50 578.0553553570724 L 50 578.0553553570724 L 51 578.1455267903107 L 51 578.1455267903106 L 52 578.2300293694612 L 52 578.2300293694611 L 53.000000000000114 578.3088603580767 L 53.000000000000114 578.3088603580767 L 54.000000000000114 578.3820172033727 L 54.000000000000114 578.3820172033727 L 55.000000000000114 578.4494975363107 L 55.000000000000114 578.4494975363107 L 56.000000000000114 578.5112991716746 L 56.000000000000114 578.5112991716745 L 57 578.5674201081417 L 57 578.5674201081417 L 58 578.6178585283476 L 58 578.6178585283476 L 59.000000000000114 578.6626127989446 L 59.000000000000114 578.6626127989445 L 59.999999999999886 578.7016814706546 L 59.999999999999886 578.7016814706546 L 61 578.7350632783169 L 61 578.7350632783169 L 62 578.7627571409282 L 62 578.7627571409282 L 63 578.7847621616779 L 63 578.7847621616779 L 64 578.8010776279774 L 64 578.8010776279773 L 65.00000000000011 578.8117030114827 L 65.00000000000011 578.8117030114827 L 66.00000000000011 578.8166379681121 L 66.00000000000011 578.8158823380568 L 67.00000000000011 578.817021647641 L 67.00000000000011 578.8158823380568 L 68.00000000000011 578.8094361457863 L 68.00000000000011 578.8094361457863 L 69 578.7972996000478 L 69 578.7972996000478 L 70 578.7794730938591 L 70 578.7794730938592 L 71.00000000000011 578.7559572044961 L 71.00000000000011 578.7559572044961 L 71.99999999999989 578.7267526934738 L 71.99999999999989 578.7267526934738 L 73 578.6918605065223 L 73 578.6918605065223 L 74 578.6512817735553 L 74 578.6512817735553 L 75 578.6050178086341 L 75 578.6050178086341 L 76 578.5530701099251 L 76 578.5530701099251 L 77 578.4954403596508 L 77 578.495440359651 L 78.00000000000011 578.4321304240359 L 78.00000000000011 578.4321304240359 L 79.00000000000011 578.3631423532461 L 79.00000000000011 578.3631423532461 L 80.00000000000011 578.2884783813228 L 80.00000000000011 578.2884783813228 L 81.00000000000011 578.2081409261095 L 81.00000000000011 578.2081409261095 L 82 578.1221325891747 L 82 578.1221325891747 L 83 578.0304561557268 L 83 578.0304561557268 L 84.00000000000011 577.9331145945243 L 84.00000000000011 577.9331145945243 L 84.99999999999989 577.8301110577795 L 84.99999999999989 577.8301110577795 L 86 577.7214488810564 L 86 577.7214488810564 L 87 577.607131583163 L 87 577.607131583163 L 88 577.4871628660369 L 88 577.487162866037 L 89 577.3615466146259 L 89 577.3615466146259 L 90.00000000000011 577.2302868967616 L 90.00000000000011 577.2302868967616 L 91.00000000000011 577.0933879630282 L 91.00000000000011 577.0933879630284 L 92.00000000000011 576.9508542466249 L 92.00000000000011 576.9508542466249 L 93.00000000000011 576.8026903632215 L 93.00000000000011 576.8026903632215 L 94 576.64890111081 L 94 576.64890111081 L 95 576.4894914695486 L 95 576.4894914695487 L 96.00000000000011 576.3244666016008 L 96.00000000000011 576.3244666016008 L 96.99999999999989 576.1538318509674 L 96.99999999999989 576.1538318509675 L 98 575.977592743315 L 98 575.977592743315 L 99 575.7957549857952 L 99 575.7957549857952 L 100 575.6083244668613 L 100 575.6083244668613 L 101 575.4153072560769 L 101 575.4153072560769 L 102 575.2167096039192 L 102 575.2167096039193 L 103.00000000000011 575.0125379415773 L 103.00000000000011 575.0125379415773 L 104.00000000000011 574.8027988807432 L 104.00000000000011 574.8027988807432 L 105.00000000000011 574.5874992133981 L 105.00000000000011 574.5874992133981 L 106.00000000000011 574.3666459115924 L 106.00000000000011 574.3666459115925 L 107 574.1402461272198 L 107 574.1402461272198 L 108 573.9083071917856 L 108 573.9083071917856 L 109.00000000000011 573.6708366161699 L 109.00000000000011 573.6708366161699 L 109.99999999999989 573.4278420903835 L 109.99999999999989 573.4278420903836 L 111 573.1793314833196 L 111 573.1793314833196 L 112 572.9253128424984 L 112 572.9253128424986 L 113 572.6657943938073 L 113 572.6657943938073 L 114 572.4007845412334 L 114 572.4007845412335 L 115.00000000000011 572.1302918665924 L 115.00000000000011 572.1302918665924 L 116.00000000000011 571.85432512925 L 116.00000000000011 571.8543251292501 L 117.00000000000011 571.5728932658387 L 117.00000000000011 571.5728932658387 L 118.00000000000011 571.286005389968 L 118.00000000000011 571.2860053899681 L 119 570.9936707919296 L 119 570.9936707919297 L 120 570.6958989383966 L 120 570.6958989383967 L 121.00000000000011 570.3926994721164 L 121.00000000000011 570.3926994721164 L 121.99999999999989 570.0840822115993 L 121.99999999999989 570.0840822115993 L 123 569.7700571507993 L 123 569.7700571507993 L 124 569.4506344587921 L 124 569.4506344587921 L 125 569.1258244794444 L 125 569.1258244794444 L 126 568.7956377310795 L 126 568.7956377310796 L 127 568.460084906137 L 127 568.460084906137 L 128.0000000000001 568.1191768708256 L 128.0000000000001 568.1191768708256 L 129.0000000000001 567.7729246647724 L 129.0000000000001 567.7729246647724 L 130.0000000000001 567.4213395006643 L 130.0000000000001 567.4213395006643 L 131.0000000000001 567.0644327638857 L 131.0000000000001 567.0644327638857 L 132 566.7022160121496 L 132 566.7022160121496 L 133 566.3347009751229 L 133 566.334700975123 L 134.0000000000001 565.9618995540472 L 134.0000000000001 565.9618995540474 L 134.9999999999999 565.5838238213532 L 134.9999999999999 565.5838238213532 L 136 565.2004860202692 L 136 565.2004860202692 L 137 564.8118985644253 L 137 564.8118985644254 L 138 564.4180740374516 L 138 564.4180740374516 L 139 564.0190251925696 L 139 564.0190251925696 L 140.0000000000001 563.6147649521806 L 140.0000000000001 563.6147649521806 L 141.0000000000001 563.2053064074461 L 141.0000000000001 563.2053064074461 L 142.0000000000001 562.7906628178644 L 142.0000000000001 562.7906628178644 L 143.0000000000001 562.3708476108412 L 143.0000000000001 562.3708476108413 L 144 561.945874381255 L 144 561.945874381255 L 145 561.5157568910157 L 145 561.5157568910157 L 146.0000000000001 561.0805090686208 L 146.0000000000001 561.0805090686209 L 146.9999999999999 560.640145008703 L 146.9999999999999 560.6401450087031 L 148 560.194678971574 L 148 560.194678971574 L 149 559.7441253827631 L 149 559.7441253827631 L 150 559.2884988325494 L 150 559.2884988325494 L 151 558.8278140754903 L 151 558.8278140754903 L 152 558.3620860299428 L 152 558.3620860299428 L 153.0000000000001 557.8913297775808 L 153.0000000000001 557.8913297775808 L 154.0000000000001 557.4155605629066 L 154.0000000000001 557.4155605629068 L 155.0000000000001 556.9347937927577 L 155.0000000000001 556.9347937927577 L 156.0000000000001 556.4490450358066 L 156.0000000000001 556.4490450358066 L 157 555.9583300220584 L 157 555.9583300220585 L 158 555.46266464234 L 158 555.46266464234 L 159.0000000000001 554.9620649477861 L 159.0000000000001 554.9620649477861 L 159.9999999999999 554.4565471493196 L 159.9999999999999 554.4565471493197 L 161 553.9461276171261 L 161 553.9461276171261 L 162 553.4308228801241 L 162 553.4308228801241 L 163 552.9106496254299 L 163 552.9106496254299 L 164 552.3856246978169 L 164 552.3856246978169 L 165.0000000000001 551.8557650991703 L 165.0000000000001 551.8557650991703 L 166.0000000000001 551.3210879879364 L 166.0000000000001 551.3210879879364 L 167.0000000000001 550.7816106785671 L 167.0000000000001 550.7816106785672 L 168.0000000000001 550.2373506409592 L 168.0000000000001 550.2373506409592 L 169 549.6883254998886 L 169 549.6883254998886 L 170 549.1345530344394 L 170 549.1345530344394 L 171.0000000000001 548.5760511774283 L 171.0000000000001 548.5760511774284 L 171.9999999999999 548.0128380148246 L 171.9999999999999 548.0128380148246 L 173 547.4449317851628 L 173 547.4449317851628 L 174 546.8723508789536 L 174 546.8723508789537 L 175 546.2951138380879 L 175 546.295113838088 L 176 545.7132393552359 L 176 545.7132393552359 L 177 545.1267462732424 L 177 545.1267462732424 L 178.0000000000001 544.5356535845158 L 178.0000000000001 544.5356535845159 L 179.0000000000001 543.9399804304144 L 179.0000000000001 543.9399804304144 L 180.0000000000001 543.3397461006249 L 180.0000000000001 543.339746100625 L 181.0000000000001 542.7349700325393 L 181.0000000000001 542.7349700325393 L 182 542.1256718106242 L 182 542.1256718106243 L 183 541.5118711657875 L 183 541.5118711657875 L 184.0000000000001 540.8935879747387 L 184.0000000000001 540.8935879747388 L 184.9999999999999 540.2708422593462 L 184.9999999999999 540.2708422593462 L 186 539.6436541859875 L 186 539.6436541859875 L 187 539.012044064898 L 187 539.012044064898 L 188 538.3760323495113 L 188 538.3760323495114 L 189 537.7356396357987 L 189 537.7356396357989 L 190.0000000000001 537.0908866616011 L 190.0000000000001 537.0908866616011 L 191.0000000000001 536.4417943059574 L 191.0000000000001 536.4417943059575 L 192.0000000000001 535.7883835884292 L 192.0000000000001 535.7883835884293 L 193.0000000000001 535.1306756684194 L 193.0000000000001 535.1306756684194 L 194 534.4686918444872 L 194 534.4686918444872 L 195 533.8024535536584 L 195 533.8024535536586 L 196.0000000000001 533.1319823707316 L 196.0000000000001 533.1319823707316 L 196.9999999999999 532.4573000075787 L 196.9999999999999 532.4573000075787 L 198 531.7784283124424 L 198 531.7784283124424 L 199 531.0953892692287 L 199 531.0953892692287 L 200 530.4082049967947 L 200 530.4082049967948 L 201 529.7168977482326 L 201 529.7168977482327 L 202 529.021489910149 L 202 529.021489910149 L 203.0000000000001 528.3220040019396 L 203.0000000000001 528.3220040019396 L 204.0000000000001 527.6184626750606 L 204.0000000000001 527.6184626750606 L 205.0000000000001 526.9108887122948 L 205.0000000000001 526.9108887122949 L 206.0000000000001 526.1993050270138 L 206.0000000000001 526.1993050270138 L 207 525.4837346624361 L 207 525.4837346624362 L 208 524.7642007908807 L 208 524.7642007908807 L 209.0000000000001 524.0407267130171 L 209.0000000000001 524.0407267130171 L 209.9999999999999 523.3133358571104 L 209.9999999999999 523.3133358571105 L 211 522.5820517782627 L 211 522.5820517782628 L 212 521.8468981576505 L 212 521.8468981576506 L 213 521.1078988017576 L 213 521.1078988017576 L 214 520.3650776416043 L 214 520.3650776416043 L 215.0000000000001 519.6184587319725 L 215.0000000000001 519.6184587319725 L 216.0000000000001 518.8680662506264 L 216.0000000000001 518.8680662506264 L 217.0000000000001 518.1139244975299 L 217.0000000000001 518.1139244975299 L 218.0000000000001 517.3560578940597 L 218.0000000000001 517.3560578940597 L 219 516.5944909822144 L 219 516.5944909822144 L 220 515.8292484238194 L 220 515.8292484238194 L 221.0000000000001 515.0603549997288 L 221.0000000000001 515.0603549997288 L 221.9999999999999 514.2878356090227 L 221.9999999999999 514.2878356090229 L 223 513.5117152682009 L 223 513.511715268201 L 224 512.7320191103727 L 224 512.7320191103727 L 225 511.94877238444303 L 225 511.94877238444303 L 226 511.16200045429514 L 226 511.1620004542952 L 227 510.3717287979689 L 227 510.37172879796896 L 228.0000000000001 509.5779830068358 L 228.0000000000001 509.5779830068358 L 229.0000000000001 508.7807887847701 L 229.0000000000001 508.78078878477015 L 230.0000000000001 507.98017194731693 L 230.0000000000001 507.980171947317 L 231.0000000000001 507.17615842085576 L 231.0000000000001 507.1761584208558 L 232 506.36877424176123 L 232 506.3687742417613 L 233 505.55804555555954 L 233 505.5580455555596 L 234.0000000000001 504.7439986160824 L 234.0000000000001 504.7439986160824 L 235 503.92665978461656 L 235 503.9266597846166 L 236 503.1060555290497 L 236 503.10605552904974 L 237 502.28221242301413 L 237 502.2822124230142 L 238 501.45515714502585 L 238 501.4551571450259 L 239 500.62491647762056 L 239 500.62491647762056 L 240.0000000000001 499.7915173064864 L 240.0000000000001 499.7915173064864 L 241.0000000000001 498.95498661959346 L 241.0000000000001 498.95498661959346 L 242.0000000000001 498.1153515063196 L 242.0000000000001 498.11535150631966 L 243.0000000000001 497.2726391565735 L 243.0000000000001 497.2726391565735 L 244 496.42687685991393 L 244 496.426876859914 L 245 495.57809200466596 L 245 495.578092004666 L 246.0000000000001 494.7263120770343 L 246.0000000000001 494.7263120770344 L 246.9999999999999 493.87156466021344 L 246.9999999999999 493.8715646602135 L 248 493.01387743349335 L 248 493.0138774334934 L 249 492.1532781713645 L 249 492.15327817136455 L 250 491.28979474261763 L 250 491.2897947426177 L 251 490.4234551094415 L 251 490.42345510944153 L 252 489.5542873265172 L 252 489.5542873265172 L 253.0000000000001 488.68231954011003 L 253.0000000000001 488.68231954011003 L 254.0000000000001 487.8075799871577 L 254.0000000000001 487.8075799871577 L 255.0000000000001 486.93009699435595 L 255.0000000000001 486.93009699435595 L 256 486.0498989772417 L 256 486.04989897724175 L 257 485.16701443927207 L 257 485.16701443927207 L 258 484.281471970902 L 258 484.281471970902 L 259.0000000000001 483.39330024865825 L 259.0000000000001 483.39330024865825 L 260 482.50252803421085 L 260 482.50252803421085 L 261 481.6091841734411 L 261 481.6091841734412 L 262 480.71329759550855 L 262 480.71329759550855 L 263 479.8148973119131 L 263 479.8148973119131 L 264 478.9140124155563 L 264 478.9140124155563 L 265 478.0106720797986 L 265 478.01067207979867 L 266 477.10490555751545 L 266 477.10490555751545 L 267.0000000000002 476.19674218014904 L 267.0000000000002 476.19674218014904 L 268 475.2862113567593 L 268 475.2862113567593 L 269 474.3733425730707 L 269 474.3733425730707 L 270 473.45816539051833 L 270 473.4581653905184 L 271 472.5407094452901 L 271 472.5407094452901 L 272 471.6210044473669 L 272 471.62100444736694 L 273 470.69908017956107 L 273 470.6990801795611 L 274 469.7749664965511 L 274 469.7749664965511 L 275 468.8486933239156 L 275 468.8486933239156 L 276 467.92029065716395 L 276 467.920290657164 L 277 466.989788560765 L 277 466.989788560765 L 278 466.05721716717335 L 278 466.05721716717335 L 279 465.12260667585355 L 279 465.12260667585355 L 280.0000000000002 464.1859873523025 L 280.0000000000002 464.1859873523025 L 281 463.2473895270691 L 281 463.2473895270691 L 282 462.30684359477175 L 282 462.30684359477175 L 283 461.3643800131147 L 283 461.3643800131148 L 284 460.4200293019016 L 284 460.4200293019016 L 285 459.4738220420468 L 285 459.4738220420468 L 286 458.52578887458503 L 286 458.52578887458503 L 287 457.57596049967987 L 287 457.57596049967987 L 288 456.6243676756289 L 288 456.62436767562895 L 289 455.67104121786787 L 289 455.6710412178679 L 290 454.7160119979729 L 290 454.7160119979729 L 291 453.7593109426604 L 291 453.7593109426604 L 292.0000000000002 452.80096903278616 L 292.0000000000002 452.8009690327862 L 293 451.84101730234175 L 293 451.84101730234175 L 294 450.8794868374491 L 294 450.8794868374491 L 295 449.91640877535485 L 295 449.91640877535485 L 296 448.95181430342126 L 296 448.95181430342126 L 297 447.9857346581165 L 297 447.98573465811654 L 298 447.0182011240034 L 298 447.0182011240034 L 299 446.04924503272537 L 299 446.04924503272537 L 300 445.07889776199323 L 300 445.07889776199323 L 301 444.10719073456806 L 301 444.10719073456806 L 302 443.13415541724396 L 302 443.13415541724396 L 303 442.15982331982906 L 303 442.15982331982906 L 304 441.1842259941252 L 304 441.1842259941252 L 305.0000000000002 440.207395032906 L 305.0000000000002 440.207395032906 L 306 439.22936206889415 L 306 439.22936206889415 L 307 438.25015877373625 L 307 438.25015877373625 L 308 437.2698168569783 L 308 437.2698168569783 L 309 436.2883680650381 L 309 436.2883680650381 L 310 435.30584418017753 L 310 435.30584418017753 L 311 434.3222770194727 L 311 434.3222770194727 L 312 433.3376984337848 L 312 433.3376984337848 L 313 432.3521403067275 L 313 432.3521403067275 L 314 431.36563455363535 L 314 431.36563455363535 L 315 430.37821312052955 L 315 430.37821312052955 L 316 429.38990798308396 L 316 429.38990798308396 L 317.0000000000002 428.40075114558937 L 317.0000000000002 428.40075114558937 L 318 427.4107746399174 L 318 427.4107746399174 L 319 426.42001052448245 L 319 426.42001052448245 L 320 425.4284908832046 L 320 425.4284908832046 L 321 424.4362478244699 L 321 424.4362478244699 L 322 423.443313480091 L 322 423.443313480091 L 323 422.4497200042664 L 323 422.4497200042664 L 324 421.45549957253894 L 324 421.45549957253894 L 325 420.46068438075457 L 325 420.46068438075457 L 326 419.4653066440193 L 326 419.4653066440193 L 327 418.46939859565583 L 327 418.4693985956559 L 328 417.47299248616025 L 328 417.47299248616025 L 329 416.476120582157 L 329 416.476120582157 L 330.0000000000002 415.4788151653548 L 330.0000000000002 415.4788151653548 L 331 414.4811085315004 L 331 414.4811085315004 L 332 413.4830329893333 L 332 413.4830329893333 L 333 412.48462085953935 L 333 412.48462085953935 L 334 411.48590447370424 L 334 411.48590447370424 L 335 410.4869161732664 L 335 410.4869161732664 L 336 409.48768830846933 L 336 409.48768830846933 L 337 408.48825323731467 L 337 408.48825323731467 L 338 407.488643324514 L 338 407.488643324514 L 339 406.4888909404406 L 339 406.4888909404406 L 340 405.4890284600817 L 340 405.4890284600817 L 341 404.4890882619896 L 341 404.4890882619896 L 342.0000000000002 403.4891027272333 L 342.0000000000002 403.4891027272333 L 343 402.48910423835 L 343 402.48910423835 L 344 401.4891251782963 L 344 401.4891251782963 L 345 400.4891979293998 L 345 400.4891979293998 L 346 399.4893548723101 L 346 399.4893548723101 L 347 398.48962838495066 L 347 398.48962838495066 L 348 397.49005084147007 L 348 397.49005084147007 L 349 396.4906546111931 L 349 396.4906546111931 L 350 395.49147205757384 L 350 395.49147205757384 L 351 394.49253553714635 L 351 394.49253553714635 L 352 393.49387739847765 L 352 393.49387739847765 L 353 392.49552998111983 L 353 392.49552998111983 L 354 391.49752561456296 L 354 391.49752561456296 L 355.0000000000002 390.49989661718797 L 355.0000000000002 390.49989661718797 L 356 389.5026752952205 L 356 389.5026752952205 L 357 388.5058939416839 L 357 388.5058939416839 L 358 387.5095848353544 L 358 387.5095848353544 L 359 386.5137802397155 L 359 386.5137802397155 L 360 385.51851240191314 L 360 385.51851240191314 L 361 384.52381355171093 L 361 384.52381355171093 L 362 383.5297159004475 L 362 383.5297159004475 L 363 382.5362516399927 L 363 382.5362516399927 L 364 381.5434529417052 L 364 381.5434529417052 L 365 380.5513519553909 L 365 380.5513519553909 L 366 379.55998080826146 L 366 379.55998080826146 L 367.0000000000002 378.56937160389447 L 367.0000000000002 378.56937160389447 L 368 377.5795564211934 L 368 377.57955642119344 L 369 376.59056731334863 L 369 376.59056731334863 L 370 375.6024363068001 L 370 375.6024363068001 L 371 374.6151954001997 L 371 374.6151954001997 L 372 373.62887656337534 L 372 373.62887656337534 L 373 372.6435117362955 L 373 372.6435117362955 L 374 371.6591328280347 L 374 371.6591328280347 L 375 370.6757717157408 L 375 370.6757717157408 L 376 369.6934602436021 L 376 369.6934602436021 L 377 368.71223022181664 L 377 368.71223022181664 L 378 367.73211342556164 L 378 367.73211342556164 L 379 366.75314159396487 L 379 366.75314159396487 L 380.0000000000002 365.77534642907665 L 380.0000000000002 365.77534642907665 L 381 364.7987595948434 L 381 364.7987595948434 L 382 363.82341271608175 L 382 363.82341271608175 L 383 362.8493373774553 L 383 362.84933737745536 L 384 361.87656512245127 L 384 361.8765651224513 L 385 360.9051274523592 L 385 360.9051274523592 L 386 359.9350558252502 L 386 359.9350558252502 L 387 358.9663816549595 L 387 358.9663816549595 L 388 357.999136310068 L 388 357.9991363100681 L 389 357.03335111288743 L 389 357.03335111288743 L 390 356.06905733844496 L 390 356.069057338445 L 391 355.1062862134715 L 391 355.10628621347155 L 392.0000000000002 354.1450689153897 L 392.0000000000002 354.14506891538974 L 393 353.1854365713049 L 393 353.1854365713049 L 394 352.2274202569963 L 394 352.2274202569963 L 395 351.2710509959119 L 395 351.2710509959119 L 396 350.31635975816266 L 396 350.31635975816266 L 397 349.3633774595204 L 397 349.36337745952045 L 398 348.4121349604164 L 398 348.41213496041644 L 399 347.4626630649415 L 399 347.4626630649415 L 400 346.5149925198496 L 400 346.5149925198496 L 401 345.5691540135613 L 401 345.56915401356133 L 402 344.6251781751702 L 402 344.6251781751702 L 403 343.6830955734512 L 403 343.6830955734512 L 404 342.7429367158705 L 404 342.74293671587054 L 405.0000000000002 341.80473204759767 L 405.0000000000002 341.80473204759767 L 406 340.8685119505198 L 406 340.8685119505198 L 407 339.9343067422573 L 407 339.9343067422574 L 408 339.0021466751829 L 408 339.0021466751829 L 409 338.07206193544124 L 409 338.07206193544124 L 410 337.14408264197175 L 410 337.14408264197175 L 411 336.2182388455329 L 411 336.21823884553294 L 412 335.2945605277296 L 412 335.29456052772963 L 413 334.37307760004205 L 413 334.37307760004205 L 414 333.4538199028571 L 414 333.4538199028571 L 415 332.53681720450186 L 415 332.53681720450186 L 416 331.6220992002799 L 416 331.6220992002799 L 417.0000000000002 330.7096955115094 L 417.0000000000002 330.7096955115094 L 418 329.79963568456435 L 418 329.79963568456435 L 419 328.89194918991694 L 419 328.891949189917 L 420 327.98666542118417 L 420 327.98666542118417 L 421 327.08381369417543 L 421 327.08381369417543 L 422 326.1834232459432 L 422 326.1834232459432 L 423 325.28552323383656 L 423 325.28552323383656 L 424 324.3901427345564 L 424 324.3901427345564 L 425 323.49731074321454 L 425 323.49731074321454 L 426 322.60705617239444 L 426 322.60705617239444 L 427 321.71940785121484 L 427 321.71940785121484 L 428 320.83439452439626 L 428 320.83439452439626 L 429 319.95204485133024 L 429 319.9520448513303 L 430 319.0723874051514 L 430 319.07238740515146 L 431 318.19545067181144 L 431 318.1954506718115 L 432 317.32126304915766 L 432 317.32126304915766 L 433 316.44985284601273 L 433 316.44985284601273 L 434 315.5812482812581 L 434 315.5812482812582 L 435 314.7154774829204 L 435 314.71547748292045 L 436 313.8525684872603 L 436 313.8525684872603 L 437 312.9925492378644 L 437 312.9925492378644 L 438 312.135447584741 L 438 312.13544758474103 L 439 311.2812912834177 L 439 311.2812912834178 L 440 310.4301079940429 L 440 310.43010799404294 L 441 309.58192528048977 L 441 309.5819252804898 L 442.0000000000002 308.7367706094639 L 442.0000000000002 308.7367706094639 L 443 307.8946713496139 L 443 307.89467134961393 L 444 307.0556547706445 L 444 307.05565477064454 L 445 306.21974804243445 L 445 306.2197480424345 L 446 305.38697823415606 L 446 305.3869782341561 L 447 304.5573723133987 L 447 304.5573723133987 L 448 303.7309571452956 L 448 303.73095714529563 L 449 302.90775949165356 L 449 302.9077594916536 L 450 302.08780601008704 L 450 302.0878060100871 L 451 301.27112325315414 L 451 301.2711232531542 L 452 300.4577376674972 L 452 300.45773766749727 L 453 299.6476755929862 L 453 299.6476755929863 L 454 298.84096326186585 L 454 298.8409632618659 L 455 298.0376267979062 L 455 298.0376267979062 L 456 297.23769221555625 L 456 297.2376922155563 L 457 296.44118541910217 L 457 296.4411854191022 L 458 295.648132201828 L 458 295.64813220182805 L 459 294.8585582451806 L 459 294.85855824518063 L 460 294.0724891179377 L 460 294.0724891179378 L 461 293.2899502753806 L 461 293.28995027538065 L 462 292.5109670584686 L 462 292.5109670584686 L 463 291.73556469301974 L 463 291.7355646930198 L 464 290.9637682888932 L 464 290.9637682888933 L 465 290.19560283917633 L 465 290.1956028391764 L 466 289.4310932193751 L 466 289.43109321937516 L 467.0000000000002 288.67026418660885 L 467.0000000000002 288.6702641866089 L 468 287.9131403788085 L 468 287.9131403788086 L 469 287.15974631391845 L 469 287.1597463139185 L 470 286.4101063891029 L 470 286.41010638910296 L 471 285.66424487995585 L 471 285.6642448799559 L 472 284.9221859397147 L 472 284.9221859397147 L 473 284.1839535984784 L 473 284.1839535984784 L 474 283.4495717624287 L 474 283.4495717624288 L 475 282.7190642130569 L 475 282.719064213057 L 476 281.99245460639315 L 476 281.99245460639315 L 477 281.2697664722403 L 477 281.26976647224035 L 478 280.55102321341224 L 478 280.55102321341224 L 479.0000000000002 279.836248104976 L 479.0000000000002 279.83624810497605 L 480 279.1254642934981 L 480 279.1254642934981 L 481 278.4186947962944 L 481 278.4186947962944 L 482 277.7159625006856 L 482 277.71596250068563 L 483 277.01729016325555 L 483 277.0172901632556 L 484 276.3227004091146 L 484 276.32270040911465 L 485 275.6322157311665 L 485 275.6322157311666 L 486 274.9458584893807 L 486 274.9458584893807 L 487 274.2636509100673 L 487 274.2636509100673 L 488 273.58561508515834 L 488 273.58561508515834 L 489 272.91177297149164 L 489 272.9117729714917 L 490 272.2421463901003 L 490 272.2421463901003 L 491 271.5767570255055 L 491 271.5767570255056 L 492.0000000000002 270.9156264250149 L 492.0000000000002 270.9156264250149 L 493 270.2587759980245 L 493 270.25877599802453 L 494 269.60622701532515 L 494 269.6062270153252 L 495 268.9580006084143 L 495 268.95800060841435 L 496 268.31411776881146 L 496 268.31411776881146 L 497 267.67459934737803 L 497 267.67459934737803 L 498 267.03946605364285 L 498 267.03946605364285 L 499 266.4087384551307 L 499 266.40873845513073 L 500 265.7824369766971 L 500 265.7824369766971 L 501 265.1605818998663 L 501 265.1605818998664 L 502 264.5431933621748 L 502 264.54319336217486 L 503 263.930291356519 L 503 263.93029135651904 L 504.0000000000002 263.321895730508 L 504.0000000000002 263.32189573050806 L 505 262.7180261858209 L 505 262.7180261858209 L 506 262.1187022775684 L 506 262.11870227756845 L 507 261.52394341366 L 507 261.52394341366005 L 508 260.93376885417536 L 508 260.93376885417536 L 509 260.3481977107405 L 509 260.3481977107406 L 510 259.76724894590916 L 510 259.7672489459092 L 511 259.1909413725485 L 511 259.19094137254854 L 512 258.61929365322965 L 512 258.6192936532297 L 513 258.05232429962405 L 513 258.05232429962416 L 514 257.49005167190353 L 514 257.49005167190353 L 515 256.9324939781456 L 515 256.93249397814566 L 516 256.3796692737443 L 516 256.37966927374435 L 517 255.8315954608252 L 517 255.83159546082527 L 518 255.2882902876655 L 518 255.28829028766552 L 519 254.74977134811968 L 519 254.74977134811974 L 520 254.2160560810497 L 520 254.21605608104971 L 521 253.68716176975994 L 521 253.68716176975997 L 522 253.16310554143791 L 522 253.16310554143794 L 523 252.64390436659943 L 523 252.6439043665995 L 524 252.12957505853896 L 524 252.129575058539 L 525 251.6201342727854 L 525 251.62013427278546 L 526 251.1155985065626 L 526 251.11559850656266 L 527 250.61598409825513 L 527 250.61598409825515 L 528 250.1213072268791 L 528 250.12130722687914 L 529.0000000000002 249.6315839115585 L 529.0000000000002 249.63158391155852 L 530 249.14683001100622 L 530 249.14683001100624 L 531 248.66706122301036 L 531 248.66706122301042 L 532 248.19229308392644 L 532 248.1922930839265 L 533 247.72254096817375 L 533 247.72254096817377 L 534 247.25782008773763 L 534 247.25782008773768 L 535 246.798145491677 L 535 246.79814549167705 L 536 246.34353206563696 L 536 246.34353206563702 L 537 245.8939945313665 L 537 245.89399453136656 L 538 245.44954744624218 L 538 245.4495474462422 L 539 245.0102052027964 L 539 245.01020520279644 L 540 244.57598202825156 L 540 244.57598202825162 L 541 244.14689198405915 L 541 244.14689198405918 L 542 243.72294896544454 L 542 243.7229489654446 L 543 243.30416670095673 L 543 243.30416670095678 L 544 242.89055875202425 L 544 242.89055875202428 L 545 242.48213851251555 L 545 242.4821385125156 L 546 242.07891920830562 L 546 242.07891920830565 L 547 241.68091389684741 L 547 241.68091389684747 L 548 241.28813546674922 L 548 241.28813546674928 L 549 240.90059663735707 L 549 240.90059663735713 L 550 240.51830995834308 L 550 240.5183099583431 L 551 240.14128780929892 L 551 240.14128780929894 L 552 239.7695423993349 L 552 239.76954239933497 L 553 239.40308576668482 L 553 239.40308576668488 L 554.0000000000002 239.04192977831585 L 554.0000000000002 239.04192977831588 L 555 238.6860861295444 L 555 238.68608612954444 L 556 238.33556634365726 L 556 238.3355663436573 L 557 237.99038177153867 L 557 237.9903817715387 L 558 237.65054359130258 L 558 237.6505435913026 L 559 237.31606280793065 L 559 237.3160628079307 L 560 236.98695025291602 L 560 236.98695025291605 L 561 236.66321658391243 L 561 236.66321658391246 L 562 236.344872284389 L 562 236.34487228438903 L 563 236.03192766329101 L 563 236.03192766329104 L 564 235.72439285470588 L 564 235.72439285470594 L 565 235.42227781753508 L 565 235.42227781753513 L 566 235.12559233517152 L 566 235.12559233517155 L 567 234.8343460151829 L 567 234.83434601518292 L 568 234.5485482890003 L 568 234.54854828900034 L 569 234.2682084116132 L 569 234.26820841161324 L 570 233.99333546126937 L 570 233.99333546126942 L 571 233.72393833918116 L 571 233.72393833918122 L 572 233.46002576923706 L 572 233.4600257692371 L 573 233.2016062977193 L 573 233.20160629771937 L 574 232.94868829302706 L 574 232.94868829302712 L 575 232.70127994540553 L 575 232.70127994540556 L 576 232.4593892666806 L 576 232.45938926668063 L 577 232.22302408999948 L 577 232.2230240899995 L 578 231.99219206957704 L 578 231.99219206957707 L 579.0000000000002 231.76690068044783 L 579.0000000000002 231.7669006804479 L 580 231.54715721822427 L 580 231.54715721822433 L 581 231.33296879886007 L 581 231.3329687988601 L 582 231.12434235841997 L 582 231.12434235842 L 583 230.92128465285523 L 583 230.92128465285526 L 584 230.72380225778466 L 584 230.72380225778468 L 585 230.53190156828174 L 585 230.53190156828177 L 586 230.3455887986676 L 586 230.34558879866765 L 587 230.16486998230968 L 587 230.16486998230974 L 588 229.98975097142647 L 588 229.9897509714265 L 589 229.82023743689786 L 589 229.82023743689788 L 590 229.65633486808153 L 590 229.65633486808156 L 591 229.49804857263535 L 591 229.4980485726354 L 592 229.34538367634534 L 592 229.3453836763454 L 593 229.19834512295964 L 593 229.19834512295967 L 594 229.05693767402855 L 594 229.0569376740286 L 595 228.9211659087503 L 595 228.92116590875034 L 596 228.79103422382272 L 596 228.79103422382275 L 597 228.6665468333009 L 597 228.66654683330094 L 598 228.54770776846073 L 598 228.54770776846078 L 599 228.43452087766826 L 599 228.4345208776683 L 600 228.32698982625521 L 600 228.32698982625527 L 601 228.22511809640028 L 601 228.22511809640034 L 602 228.12890898701625 L 602 228.12890898701627 L 603 228.0383656136432 L 603 228.03836561364324 L 604.0000000000002 227.95349090834776 L 604.0000000000002 227.9534909083478 L 605 227.87428761962798 L 605 227.874287619628 L 606 227.80075831232438 L 606 227.8007583123244 L 607 227.7329053675369 L 607 227.73290536753692 L 608 227.6707309825479 L 608 227.67073098254792 L 609 227.61423717075078 L 609 227.6142371707508 L 610 227.563425761585 L 610 227.56342576158502 L 611 227.5182984004767 L 611 227.51829840047674 L 612 227.47885654878547 L 612 227.47885654878553 L 613 227.445101483757 L 613 227.44510148375707 L 614 227.41703429848178 L 614 227.41703429848184 L 615 227.39465590185964 L 615 227.39465590185966 L 616 227.37796701857025 L 616 227.37796701857027 L 617 227.36696818904986 L 617 227.3669681890499 L 618 227.36165976947362 L 618 227.36204193174413 L 619 227.36112669193966 L 619 227.36204193174413 L 620 227.36811466348584 L 620 227.36811466348578 L 621 227.3798777680454 L 621 227.37987776804533 L 622 227.3973308644981 L 622 227.39733086449806 L 623 227.42047338766028 L 623 227.42047338766025 L 624 227.44930458810745 L 624 227.44930458810742 L 625 227.48382353219876 L 625 227.4838235321987 L 626 227.52402910210694 L 626 227.5240291021069 L 627 227.56991999585486 L 627 227.56991999585483 L 628 227.62149472735743 L 628 227.62149472735737 L 629.0000000000002 227.67875162646982 L 629.0000000000002 227.6787516264698 L 630 227.7416888390416 L 630 227.74168883904156 L 631 227.8103043269766 L 631 227.81030432697654 L 632 227.8845958682991 L 632 227.88459586829907 L 633 227.96456105722572 L 633 227.96456105722567 L 634 228.05019730424328 L 634 228.05019730424323 L 635 228.14150183619273 L 635 228.14150183619267 L 636 228.23847169635886 L 636 228.23847169635883 L 637 228.34110374456623 L 637 228.3411037445662 L 638 228.44939465728055 L 638 228.44939465728052 L 639 228.56334092771667 L 639 228.5633409277166 L 640 228.6829388659518 L 640 228.68293886595174 L 641 228.80818459904526 L 641 228.80818459904523 L 642 228.9390740711638 L 642 228.93907407116376 L 643 229.07560304371287 L 643 229.07560304371285 L 644 229.21776709547404 L 644 229.217767095474 L 645 229.36556162274792 L 645 229.3655616227479 L 646 229.51898183950365 L 646 229.5189818395036 L 647 229.67802277753339 L 647 229.67802277753333 L 648 229.84267928661356 L 648 229.84267928661353 L 649 230.01294603467153 L 649 230.0129460346715 L 650 230.18881750795822 L 650 230.1888175079582 L 651 230.37028801122676 L 651 230.3702880112267 L 652 230.55735166791678 L 652 230.55735166791675 L 653 230.75000242034483 L 653 230.7500024203448 L 654.0000000000002 230.94823402990056 L 654.0000000000002 230.94823402990053 L 655.0000000000002 231.1520400772486 L 655.0000000000002 231.15204007724859 L 656.0000000000002 231.3614139625366 L 656.0000000000002 231.36141396253657 L 656.9999999999998 231.57634890560882 L 656.9999999999998 231.5763489056088 L 658 231.79683794622585 L 658 231.79683794622582 L 659 232.02287394428987 L 659 232.0228739442898 L 660 232.2544495800758 L 660 232.25444958007577 L 661 232.4915573544686 L 661 232.49155735446857 L 662 232.7341895892058 L 662 232.73418958920578 L 663 232.98233842712648 L 663 232.98233842712645 L 664 233.23599583242537 L 664 233.23599583242532 L 665 233.4951535909133 L 665 233.49515359091325 L 666 233.7598033102831 L 666 233.75980331028308 L 667.0000000000002 234.02993642038146 L 667.0000000000002 234.02993642038143 L 668.0000000000002 234.30554417348637 L 668.0000000000002 234.3055441734863 L 669.0000000000002 234.58661764459035 L 669.0000000000002 234.58661764459032 L 670 234.87314773168956 L 670 234.87314773168953 L 671 235.16512515607877 L 671 235.16512515607874 L 672 235.4625404626513 L 672 235.46254046265128 L 673 235.76538402020563 L 673 235.76538402020557 L 674 236.0736460217571 L 674 236.07364602175707 L 675 236.3873164848556 L 675 236.38731648485557 L 676 236.70638525190878 L 676 236.70638525190876 L 677 237.03084199051096 L 677 237.0308419905109 L 678 237.36067619377772 L 678 237.3606761937777 L 679.0000000000002 237.69587718068627 L 679.0000000000002 237.69587718068624 L 680.0000000000002 238.0364340964211 L 680.0000000000002 238.03643409642106 L 681.0000000000002 238.38233591272572 L 681.0000000000002 238.3823359127257 L 681.9999999999998 238.73357142825958 L 681.9999999999998 238.73357142825955 L 683 239.09012926896122 L 683 239.0901292689612 L 684 239.45199788841597 L 684 239.45199788841592 L 685 239.8191655682303 L 685 239.81916556823026 L 686 240.19162041841116 L 686 240.1916204184111 L 687 240.56935037775105 L 687 240.56935037775102 L 688 240.9523432142186 L 688 240.95234321421856 L 689 241.34058652535458 L 689 241.34058652535455 L 690 241.73406773867376 L 690 241.7340677386737 L 691 242.1327741120717 L 691 242.13277411207167 L 692.0000000000002 242.53669273423776 L 692.0000000000002 242.53669273423773 L 693.0000000000002 242.9458105250729 L 693.0000000000002 242.94581052507283 L 694.0000000000002 243.36011423611333 L 694.0000000000002 243.3601142361133 L 695.0000000000002 243.77959045095977 L 695.0000000000002 243.77959045095972 L 696 244.2042255857114 L 696 244.20422558571136 L 697 244.63400588940652 L 697 244.6340058894065 L 698 245.06891744446708 L 698 245.06891744446705 L 699 245.5089461671497 L 699 245.50894616714965 L 700 245.95407780800178 L 700 245.95407780800173 L 701 246.4042979523229 L 701 246.40429795232288 L 702 246.85959202063162 L 702 246.8595920206316 L 703 247.31994526913758 L 703 247.31994526913752 L 704.0000000000002 247.7853427902189 L 704.0000000000002 247.78534279021886 L 705.0000000000002 248.2557695129051 L 705.0000000000002 248.25576951290506 L 706.0000000000002 248.73121020336492 L 706.0000000000002 248.7312102033649 L 706.9999999999998 249.21164946539972 L 706.9999999999998 249.21164946539966 L 708 249.69707174094245 L 708 249.6970717409424 L 709 250.18746131056068 L 709 250.18746131056065 L 710 250.68280229396626 L 710 250.6828022939662 L 711 251.1830786505293 L 711 251.18307865052924 L 712 251.68827417979776 L 712 251.68827417979773 L 713 252.198372522022 L 713 252.19837252202194 L 714 252.7133571586845 L 714 252.71335715868446 L 715 253.2332114130349 L 715 253.23321141303487 L 716 253.75791845062997 L 716 253.75791845062994 L 717.0000000000002 254.28746127987878 L 717.0000000000002 254.28746127987873 L 718.0000000000002 254.82182275259288 L 718.0000000000002 254.82182275259285 L 719.0000000000002 255.36098556454172 L 719.0000000000002 255.3609855645417 L 720.0000000000002 255.90493225601296 L 720.0000000000002 255.90493225601293 L 721 256.45364521237764 L 721 256.45364521237764 L 722 257.00710666466136 L 722 257.0071066646613 L 723 257.5652986901186 L 723 257.56529869011854 L 724 258.1282032128139 L 724 258.1282032128139 L 725 258.69580200420694 L 725 258.69580200420694 L 726 259.26807668374295 L 726 259.2680766837429 L 727 259.8450087194476 L 727 259.8450087194476 L 728 260.4265794285277 L 728 260.42657942852765 L 729.0000000000002 261.0127699779756 L 729.0000000000002 261.0127699779756 L 730.0000000000002 261.60356138517955 L 730.0000000000002 261.60356138517955 L 731.0000000000002 262.198934518538 L 731.0000000000002 262.19893451853795 L 731.9999999999998 262.7988700980793 L 731.9999999999998 262.7988700980793 L 733 263.4033486960866 L 733 263.40334869608654 L 734 264.0123507377258 L 734 264.0123507377258 L 735 264.62585650168046 L 735 264.62585650168046 L 736 265.24384612078995 L 736 265.2438461207899 L 737 265.86629958269293 L 737 265.8662995826929 L 738 266.49319673047546 L 738 266.49319673047546 L 739 267.12451726332375 L 739 267.1245172633237 L 740 267.7602407371814 L 740 267.76024073718133 L 741 268.40034656541155 L 741 268.4003465654115 L 742.0000000000002 269.0448140194636 L 742.0000000000002 269.04481401946356 L 743.0000000000002 269.6936222295444 L 743.0000000000002 269.69362222954436 L 744.0000000000002 270.346750185294 L 744.0000000000002 270.34675018529396 L 745.0000000000002 271.0041767364662 L 745.0000000000002 271.0041767364661 L 746 271.665880593613 L 746 271.665880593613 L 747 272.3318403287752 L 747 272.3318403287751 L 748 273.0020343761746 L 748 273.0020343761746 L 749 273.67644103291383 L 749 273.6764410329138 L 750 274.3550384596782 L 750 274.3550384596781 L 751 275.0378046814434 L 751 275.03780468144333 L 752 275.7247175881871 L 752 275.72471758818705 L 753 276.41575493560475 L 753 276.4157549356047 L 754.0000000000002 277.1108943458301 L 754.0000000000002 277.11089434583005 L 755.0000000000002 277.81011330815966 L 755.0000000000002 277.8101133081596 L 756.0000000000002 278.51338917978194 L 756.0000000000002 278.5133891797819 L 756.9999999999998 279.2206991865101 L 756.9999999999998 279.22069918651005 L 758 279.9320204235208 L 758 279.9320204235207 L 759 280.6473298560941 L 759 280.6473298560941 L 760 281.3666043203607 L 760 281.36660432036064 L 761 282.0898205240515 L 761 282.0898205240515 L 762 282.81695504725224 L 762 282.81695504725224 L 763 283.5479843431615 L 763 283.5479843431615 L 764 284.28288473885345 L 764 284.28288473885345 L 765 285.02163243604457 L 765 285.02163243604457 L 766 285.7642035118639 L 766 285.7642035118639 L 767.0000000000002 286.51057391962826 L 767.0000000000002 286.5105739196282 L 768.0000000000002 287.26071948962044 L 768.0000000000002 287.2607194896204 L 769.0000000000002 288.0146159298723 L 769.0000000000002 288.01461592987226 L 770 288.7722388269509 L 770 288.77223882695085 L 771 289.53356364675017 L 771 289.53356364675017 L 772 290.29856573528406 L 772 290.298565735284 L 773 291.06722031948556 L 773 291.0672203194855 L 774 291.839502508009 L 774 291.83950250800893 L 775 292.61538729203585 L 775 292.6153872920358 L 776 293.39484954608486 L 776 293.39484954608486 L 777 294.1778640288255 L 777 294.1778640288255 L 778 294.96440538389544 L 778 294.9644053838954 L 779.0000000000002 295.7544481407214 L 779.0000000000002 295.75444814072137 L 780.0000000000002 296.54796671534444 L 780.0000000000002 296.5479667153444 L 781.0000000000002 297.3449354112482 L 781.0000000000002 297.3449354112481 L 781.9999999999998 298.1453284201905 L 781.9999999999998 298.1453284201904 L 783 298.9491198230406 L 783 298.9491198230405 L 784 299.7562835906167 L 784 299.7562835906167 L 785 300.56679358453016 L 785 300.56679358453016 L 786 301.3806235580312 L 786 301.3806235580311 L 787 302.1977471568591 L 787 302.19774715685907 L 788 303.0181379200959 L 788 303.0181379200959 L 789 303.84176928102295 L 789 303.8417692810229 L 790 304.6686145679812 L 790 304.66861456798114 L 791 305.498647005235 L 791 305.49864700523494 L 792.0000000000002 306.33183971383943 L 792.0000000000002 306.3318397138394 L 793.0000000000002 307.16816571251024 L 793.0000000000002 307.16816571251024 L 794.0000000000002 308.007597918498 L 794.0000000000002 308.00759791849794 L 795.0000000000002 308.85010914846475 L 795.0000000000002 308.8501091484647 L 796 309.6956721193644 L 796 309.69567211936436 L 797 310.5442594493271 L 797 310.54425944932706 L 798 311.3958436585442 L 798 311.3958436585442 L 799 312.2503971701596 L 799 312.25039717015954 L 800 313.10789231116206 L 800 313.107892311162 L 801 313.9683013132817 L 801 313.96830131328164 L 802 314.8315963138888 L 802 314.8315963138888 L 803 315.6977493568967 L 803 315.6977493568967 L 804.0000000000002 316.5667323936664 L 804.0000000000002 316.56673239366637 L 805.0000000000002 317.4385172839155 L 805.0000000000002 317.4385172839155 L 806.0000000000002 318.3130757966288 L 806.0000000000002 318.3130757966288 L 807 319.1903796109731 L 807 319.190379610973 L 808 320.0704003172143 L 808 320.07040031721425 L 809 320.95310941763677 L 809 320.95310941763677 L 810 321.8384783274668 L 810 321.83847832746676 L 811 322.726478375798 L 811 322.72647837579797 L 812 323.61708080651977 L 812 323.61708080651977 L 813 324.51025677924866 L 813 324.5102567792486 L 814 325.4059773702621 L 814 325.40597737026206 L 815 326.30421357343516 L 815 326.3042135734351 L 816 327.2049363011798 L 816 327.2049363011798 L 817.0000000000002 328.108116385387 L 817.0000000000002 328.10811638538695 L 818.0000000000002 329.0137245783709 L 818.0000000000002 329.01372457837084 L 819.0000000000002 329.9217315538163 L 819.0000000000002 329.9217315538163 L 820.0000000000002 330.8321079077283 L 820.0000000000002 330.8321079077283 L 821 331.74482415938394 L 821 331.74482415938394 L 822 332.65985075228843 L 822 332.65985075228843 L 823 333.5771580551301 L 823 333.57715805513004 L 824 334.4967163627414 L 824 334.4967163627414 L 825 335.41849589706044 L 825 335.41849589706044 L 826 336.34246680809554 L 826 336.34246680809554 L 827 337.26859917489145 L 827 337.2685991748914 L 828 338.19686300649846 L 828 338.19686300649846 L 829.0000000000002 339.1272282429438 L 829.0000000000002 339.1272282429438 L 830.0000000000002 340.0596647562047 L 830.0000000000002 340.0596647562047 L 831.0000000000002 340.99414235118445 L 831.0000000000002 340.9941423511844 L 832 341.93063076668943 L 832 341.9306307666894 L 833 342.86909967641066 L 833 342.8690996764106 L 834 343.8095186899038 L 834 343.8095186899038 L 835 344.75185735357485 L 835 344.7518573535748 L 836 345.6960851516654 L 836 345.6960851516654 L 837 346.6421715072414 L 837 346.6421715072414 L 838 347.59008578318316 L 838 347.5900857831831 L 839 348.5397972831773 L 839 348.5397972831772 L 840 349.491275252711 L 840 349.4912752527109 L 841 350.44448888006775 L 841 350.44448888006775 L 842.0000000000002 351.39940729732547 L 842.0000000000002 351.39940729732547 L 843.0000000000002 352.3559995813556 L 843.0000000000002 352.3559995813556 L 844.0000000000002 353.31423475482484 L 844.0000000000002 353.31423475482484 L 845.0000000000002 354.2740817871982 L 845.0000000000002 354.27408178719816 L 846 355.23550959574357 L 846 355.23550959574357 L 847 356.19848704653936 L 847 356.19848704653936 L 848 357.16298295548114 L 848 357.1629829554811 L 849 358.1289660892924 L 849 358.1289660892924 L 850 359.09640516653604 L 850 359.09640516653604 L 851 360.0652688586269 L 851 360.0652688586269 L 852 361.0355257908466 L 852 361.0355257908466 L 853 362.0071445433594 L 853 362.0071445433594 L 854.0000000000002 362.9800936522299 L 854.0000000000002 362.9800936522299 L 855.0000000000002 363.9543416104416 L 855.0000000000002 363.9543416104416 L 856.0000000000002 364.9298568689174 L 856.0000000000002 364.9298568689174 L 857 365.9066078375409 L 857 365.9066078375409 L 858 366.8845628861806 L 858 366.8845628861806 L 859 367.8636903457124 L 859 367.86369034571237 L 860 368.8439585090463 L 860 368.8439585090463 L 861 369.82533563215276 L 861 369.82533563215276 L 862 370.807789935091 L 862 370.80778993509097 L 863 371.7912896030378 L 863 371.79128960303774 L 864 372.77580278731784 L 864 372.77580278731784 L 865 373.76129760643516 L 865 373.76129760643516 L 866 374.74774214710555 L 866 374.74774214710555 L 867.0000000000002 375.7351044652899 L 867.0000000000002 375.7351044652899 L 868.0000000000002 376.7233525872287 L 868.0000000000002 376.7233525872287 L 869.0000000000002 377.71245451047747 L 869.0000000000002 377.71245451047747 L 870.0000000000002 378.7023782049431 L 870.0000000000002 378.7023782049431 L 871 379.6930916139207 L 871 379.69309161392067 L 872 380.68456265513305 L 872 380.684562655133 L 873 381.67675922176744 L 873 381.67675922176744 L 874 382.66964918351704 L 874 382.66964918351704 L 875 383.6632003876205 L 875 383.6632003876205 L 876 384.6573806599037 L 876 384.6573806599037 L 877 385.6521578058213 L 877 385.6521578058213 L 878 386.6474996114993 L 878 386.6474996114993 L 879.0000000000002 387.6433738447786 L 879.0000000000002 387.6433738447786 L 880.0000000000002 388.63974825625814 L 880.0000000000002 388.63974825625814 L 881.0000000000002 389.6365905803398 L 881.0000000000002 389.6365905803398 L 882 390.6338685362728 L 882 390.63386853627276 L 883 391.63154982919997 L 883 391.63154982919997 L 884 392.6296021512022 L 884 392.6296021512022 L 885 393.6279931823455 L 885 393.6279931823455 L 886 394.62669059172754 L 886 394.62669059172754 L 887 395.62566203852447 L 887 395.62566203852447 L 888 396.62487517303833 L 888 396.62487517303833 L 889 397.6242976377446 L 889 397.6242976377446 L 890 398.6238970683399 L 890 398.6238970683399 L 891.0000000000002 399.6236410947904 L 891.0000000000002 399.6236410947904 L 892.0000000000002 400.6234973423796 L 892.0000000000002 400.6234973423796 L 893.0000000000002 401.623433432757 L 893.0000000000002 401.623433432757 L 894.0000000000002 402.6234169849867 L 894.0000000000002 402.6234169849867 L 895.0000000000002 403.62341561659554 L 895.0000000000002 403.62341561659554 L 896 404.6233969446221 L 896 404.6233969446221 L 897 405.6233285866658 L 897 405.6233285866658 L 898 406.6231781619346 L 898 406.6231781619346 L 899 407.62291329229396 L 899 407.62291329229396 L 900 408.6225016033156 L 900 408.6225016033156 L 901 409.62191072532556 L 901 409.62191072532556 L 902 410.6211082944527 L 902 410.6211082944527 L 903 411.62006195367655 L 903 411.62006195367655 L 904.0000000000002 412.61873935387507 L 904.0000000000002 412.61873935387507 L 905.0000000000002 413.6171081548725 L 905.0000000000002 413.6171081548724 L 906.0000000000002 414.6151360264862 L 906.0000000000002 414.6151360264862 L 907 415.61279064957387 L 907 415.61279064957387 L 908 416.61003971708084 L 908 416.6100397170808 L 909 417.60685093508454 L 909 417.60685093508454 L 910 418.6031920238418 L 910 418.6031920238418 L 911 419.59903071883355 L 911 419.59903071883355 L 912 420.59433477180966 L 912 420.59433477180966 L 913 421.5890719518335 L 913 421.5890719518335 L 914 422.5832100463253 L 914 422.5832100463253 L 915 423.5767168621056 L 915 423.5767168621056 L 916.0000000000002 424.56956022643766 L 916.0000000000002 424.56956022643766 L 917.0000000000002 425.5617079880692 L 917.0000000000002 425.5617079880692 L 918.0000000000002 426.5531280182737 L 918.0000000000002 426.55312801827364 L 919.0000000000002 427.54378821189067 L 919.0000000000002 427.54378821189067 L 920.0000000000002 428.53365648836564 L 920.0000000000002 428.5336564883656 L 921 429.5227007927882 L 921 429.5227007927882 L 922 430.51088909693186 L 922 430.5108890969318 L 923 431.49818940028877 L 923 431.49818940028877 L 924 432.4845697311078 L 924 432.4845697311078 L 925 433.46999814742907 L 925 433.46999814742907 L 926 434.45444273811864 L 926 434.45444273811864 L 927 435.4378716239019 L 927 435.43787162390186 L 928 436.4202529583956 L 928 436.4202529583956 L 929.0000000000002 437.4015549291396 L 929.0000000000002 437.40155492913954 L 930.0000000000002 438.3817457586265 L 930.0000000000002 438.3817457586265 L 931.0000000000002 439.36079370533133 L 931.0000000000002 439.36079370533133 L 932 440.3386670647386 L 932 440.33866706473856 L 933 441.31533417037036 L 933 441.31533417037036 L 934 442.29076339481 L 934 442.29076339480997 L 935 443.2649231507275 L 935 443.26492315072744 L 936 444.23778189190193 L 936 444.23778189190193 L 937 445.20930811424324 L 937 445.20930811424324 L 938 446.17947035681243 L 938 446.1794703568124 L 939 447.14823720284 L 939 447.14823720284 L 940 448.1155772807438 L 940 448.11557728074376 L 941.0000000000002 449.0814592651447 L 941.0000000000002 449.08145926514464 L 942.0000000000002 450.0458518778809 L 942.0000000000002 450.04585187788086 L 943.0000000000002 451.0087238890211 L 943.0000000000002 451.00872388902104 L 944.0000000000002 451.97004411787543 L 944.0000000000002 451.97004411787543 L 945.0000000000002 452.9297814340057 L 945.0000000000002 452.9297814340057 L 946 453.88790475823254 L 946 453.88790475823254 L 947 454.8443830636437 L 947 454.8443830636437 L 948 455.7991853765965 L 948 455.7991853765964 L 949 456.7522807777222 L 949 456.7522807777222 L 950 457.7036384029272 L 950 457.7036384029272 L 951 458.65322744439214 L 951 458.6532274443921 L 952 459.60101715156975 L 952 459.6010171515697 L 953 460.5469768321806 L 953 460.5469768321806 L 954.0000000000002 461.49107585320706 L 954.0000000000002 461.49107585320706 L 955.0000000000002 462.4332836418853 L 955.0000000000002 462.4332836418853 L 955.9999999999998 463.37356968669485 L 955.9999999999998 463.3735696866948 L 957 464.311903538348 L 957 464.311903538348 L 958 465.24825481077414 L 958 465.24825481077414 L 959 466.18259318210477 L 959 466.18259318210477 L 960 467.1148883956551 L 960 467.1148883956551 L 961 468.04511026090404 L 961 468.04511026090404 L 962 468.9732286544717 L 962 468.97322865447165 L 963 469.8992135210949 L 963 469.8992135210949 L 964 470.8230348746006 L 964 470.8230348746006 L 965 471.7446627988766 L 965 471.74466279887656 L 966.0000000000002 472.6640674488408 L 966.0000000000002 472.66406744884074 L 967.0000000000002 473.58121905140706 L 967.0000000000002 473.58121905140706 L 968.0000000000002 474.4960879064501 L 968.0000000000002 474.4960879064501 L 969.0000000000002 475.4086443877665 L 969.0000000000002 475.4086443877665 L 970.0000000000002 476.31885894403473 L 970.0000000000002 476.31885894403473 L 971 477.22670209977133 L 971 477.2267020997713 L 972 478.1321444562869 L 972 478.1321444562868 L 973 479.0351566926362 L 973 479.0351566926362 L 974 479.9357095665689 L 974 479.9357095665689 L 975 480.83377391547634 L 975 480.8337739154763 L 976 481.72932065733556 L 976 481.72932065733556 L 977 482.6223207916515 L 977 482.6223207916514 L 978 483.51274540039566 L 978 483.5127454003956 L 979.0000000000002 484.40056564894303 L 979.0000000000002 484.40056564894303 L 980.0000000000002 485.2857527870055 L 980.0000000000002 485.28575278700544 L 980.9999999999998 486.16827814956275 L 980.9999999999998 486.1682781495627 L 982 487.0481131577915 L 982 487.0481131577915 L 983 487.92522931998957 L 983 487.9252293199895 L 984 488.79959823249925 L 984 488.79959823249925 L 985 489.67119158062724 L 985 489.6711915806272 L 986 490.5399811395611 L 986 490.5399811395611 L 987 491.40593877528386 L 987 491.40593877528386 L 988 492.26903644548446 L 988 492.2690364454844 L 989 493.1292462004661 L 989 493.1292462004661 L 990 493.98654018405165 L 990 493.98654018405165 L 991.0000000000002 494.8408906344851 L 991.0000000000002 494.8408906344851 L 992.0000000000002 495.6922698853311 L 992.0000000000002 495.69226988533103 L 993.0000000000002 496.54065036637047 L 993.0000000000002 496.5406503663704 L 994.0000000000002 497.3860046044934 L 994.0000000000002 497.38600460449334 L 995.0000000000002 498.2283052245889 L 995.0000000000002 498.22830522458884 L 996 499.0675249504309 L 996 499.0675249504309 L 997 499.90363660556295 L 997 499.9036366055629 L 998 500.73661311417624 L 998 500.7366131141762 L 999 501.5664275019879 L 999 501.56642750198785 L 1000 502.393052897114 L 1000 502.39305289711393 L 1001 503.21646253093957 L 1001 503.2164625309395 L 1002 504.03662973898594 L 1002 504.0366297389859 L 1003 504.8535279617738 L 1003 504.85352796177375 L 1004.0000000000002 505.6671307456834 L 1004.0000000000002 505.6671307456833 L 1005.0000000000002 506.47741174381116 L 1005.0000000000002 506.4774117438111 L 1005.9999999999998 507.28434471682283 L 1005.9999999999998 507.2843447168228 L 1007 508.0879035338039 L 1007 508.08790353380385 L 1008 508.88806217310434 L 1008 508.8880621731043 L 1009 509.68479472318256 L 1009 509.6847947231825 L 1010 510.4780753834438 L 1010 510.47807538344375 L 1011 511.26787846507614 L 1011 511.2678784650761 L 1012 512.0541783918818 L 1012 512.0541783918818 L 1013 512.8369497011059 L 1013 512.8369497011059 L 1014 513.6161670442608 L 1014 513.6161670442608 L 1015 514.3918051879468 L 1015 514.3918051879468 L 1016.0000000000002 515.1638390146697 L 1016.0000000000002 515.1638390146696 L 1017.0000000000002 515.9322435236536 L 1017.0000000000002 515.9322435236535 L 1018.0000000000002 516.696993831651 L 1018.0000000000002 516.696993831651 L 1019.0000000000002 517.4580651737483 L 1019.0000000000002 517.4580651737483 L 1020.0000000000002 518.2154329041682 L 1020.0000000000002 518.2154329041682 L 1021 518.9690724970668 L 1021 518.9690724970668 L 1022 519.7189595473295 L 1022 519.7189595473295 L 1023 520.4650697713595 L 1023 520.4650697713595 L 1024 521.2073790078651 L 1024 521.2073790078651 L 1025 521.9458632186424 L 1025 521.9458632186423 L 1026 522.6804984893528 L 1026 522.6804984893528 L 1027 523.4112610302983 L 1027 523.4112610302982 L 1028 524.1381271771913 L 1028 524.1381271771913 L 1029.0000000000002 524.8610733919216 L 1029.0000000000002 524.8610733919215 L 1030.0000000000002 525.5800762633177 L 1030.0000000000002 525.5800762633176 L 1030.9999999999998 526.2951125079052 L 1030.9999999999998 526.2951125079052 L 1032 527.006158970662 L 1032 527.006158970662 L 1033 527.7131926257663 L 1033 527.7131926257663 L 1034 528.4161905773433 L 1034 528.4161905773432 L 1035 529.1151300602062 L 1035 529.1151300602062 L 1036 529.8099884405939 L 1036 529.8099884405939 L 1037 530.5007432169036 L 1037 530.5007432169036 L 1038 531.1873720204196 L 1038 531.1873720204196 L 1039 531.8698526160374 L 1039 531.8698526160373 L 1040 532.5481629029839 L 1040 532.5481629029839 L 1041.0000000000002 533.2222809155335 L 1041.0000000000002 533.2222809155335 L 1042.0000000000002 533.8921848237187 L 1042.0000000000002 533.8921848237187 L 1043.0000000000002 534.5578529340376 L 1043.0000000000002 534.5578529340376 L 1044.0000000000002 535.2192636901558 L 1044.0000000000002 535.2192636901558 L 1045.0000000000002 535.8763956736053 L 1045.0000000000002 535.8763956736053 L 1046 536.5292276044771 L 1046 536.5292276044771 L 1047 537.1777383421115 L 1047 537.1777383421115 L 1048 537.8219068857816 L 1048 537.8219068857816 L 1049 538.4617123753737 L 1049 538.4617123753736 L 1050 539.097134092063 L 1050 539.097134092063 L 1051 539.7281514589845 L 1051 539.7281514589845 L 1052 540.3547440418995 L 1052 540.3547440418994 L 1053 540.9768915498564 L 1053 540.9768915498564 L 1054.0000000000002 541.5945738358494 L 1054.0000000000002 541.5945738358494 L 1055.0000000000002 542.2077708974693 L 1055.0000000000002 542.2077708974693 L 1055.9999999999998 542.8164628775523 L 1055.9999999999998 542.8164628775522 L 1057 543.4206300648227 L 1057 543.4206300648226 L 1058 544.0202528945309 L 1058 544.0202528945309 L 1059 544.6153119490876 L 1059 544.6153119490876 L 1060 545.2057879586921 L 1060 545.2057879586921 L 1061 545.7916618019563 L 1061 545.7916618019563 L 1062 546.3729145065244 L 1062 546.3729145065244 L 1063 546.9495272496868 L 1063 546.9495272496866 L 1064 547.5214813589896 L 1064 547.5214813589895 L 1065 548.0887583128399 L 1065 548.0887583128398 L 1066.0000000000002 548.6513397411047 L 1066.0000000000002 548.6513397411047 L 1067.0000000000002 549.2092074257067 L 1067.0000000000002 549.2092074257067 L 1068.0000000000002 549.7623433012135 L 1068.0000000000002 549.7623433012134 L 1069.0000000000002 550.3107294554227 L 1069.0000000000002 550.3107294554227 L 1070.0000000000002 550.8543481299427 L 1070.0000000000002 550.8543481299427 L 1071 551.3931817207665 L 1071 551.3931817207665 L 1072 551.9272127788433 L 1072 551.9272127788433 L 1073 552.4564240106424 L 1073 552.4564240106424 L 1074 552.9807982787132 L 1074 552.9807982787132 L 1075 553.500318602241 L 1075 553.500318602241 L 1076 554.0149681575963 L 1076 554.0149681575962 L 1077 554.5247302788795 L 1077 554.5247302788794 L 1078 555.0295884584609 L 1078 555.0295884584609 L 1079.0000000000002 555.5295263475156 L 1079.0000000000002 555.5295263475155 L 1080.0000000000002 556.0245277565518 L 1080.0000000000002 556.0245277565517 L 1080.9999999999998 556.514576655936 L 1080.9999999999998 556.514576655936 L 1082 556.9996571764124 L 1082 556.9996571764124 L 1083 557.4797536096155 L 1083 557.4797536096155 L 1084 557.9548504085799 L 1084 557.9548504085798 L 1085 558.424932188243 L 1085 558.424932188243 L 1086 558.8899837259444 L 1086 558.8899837259443 L 1087 559.3499899619171 L 1087 559.349989961917 L 1088 559.8049359997767 L 1088 559.8049359997767 L 1089 560.2548071070033 L 1089 560.2548071070032 L 1090 560.699588715418 L 1090 560.699588715418 L 1091.0000000000002 561.1392664216557 L 1091.0000000000002 561.1392664216557 L 1092.0000000000002 561.5738259876308 L 1092.0000000000002 561.5738259876308 L 1093.0000000000002 562.0032533409983 L 1093.0000000000002 562.0032533409983 L 1094.0000000000002 562.4275345756098 L 1094.0000000000002 562.4275345756098 L 1095.0000000000002 562.8466559519638 L 1095.0000000000002 562.8466559519637 L 1096 563.2606038976502 L 1096 563.2606038976501 L 1097 563.6693650077906 L 1097 563.6693650077906 L 1098 564.0729260454716 L 1098 564.0729260454716 L 1099 564.471273942174 L 1099 564.4712739421739 L 1100 564.8643957981953 L 1100 564.8643957981952 L 1101 565.2522788830685 L 1101 565.2522788830684 L 1102 565.6349106359733 L 1102 565.6349106359733 L 1103 566.0122786661436 L 1103 566.0122786661436 L 1104.0000000000002 566.3843707532684 L 1104.0000000000002 566.3843707532683 L 1105.0000000000002 566.7511748478875 L 1105.0000000000002 566.7511748478873 L 1105.9999999999998 567.1126790717816 L 1105.9999999999998 567.1126790717816 L 1107 567.4688717183578 L 1107 567.4688717183578 L 1108 567.8197412530276 L 1108 567.8197412530276 L 1109 568.1652763135806 L 1109 568.1652763135805 L 1110 568.5054657105533 L 1110 568.5054657105532 L 1111 568.8402984275903 L 1111 568.8402984275901 L 1112 569.1697636218018 L 1112 569.1697636218018 L 1113 569.4938506241149 L 1113 569.4938506241149 L 1114 569.8125489396182 L 1114 569.8125489396181 L 1115 570.1258482479022 L 1115 570.1258482479021 L 1116.0000000000002 570.4337384033938 L 1116.0000000000002 570.4337384033938 L 1117.0000000000002 570.7362094356845 L 1117.0000000000002 570.7362094356845 L 1118.0000000000002 571.0332515498529 L 1118.0000000000002 571.0332515498529 L 1119.0000000000002 571.3248551267827 L 1119.0000000000002 571.3248551267827 L 1120.0000000000002 571.6110107234738 L 1120.0000000000002 571.6110107234737 L 1121 571.8917090733474 L 1121 571.8917090733473 L 1122 572.1669410865477 L 1122 572.1669410865477 L 1123 572.4366978502347 L 1123 572.4366978502347 L 1124 572.7009706288738 L 1124 572.7009706288737 L 1125 572.9597508645179 L 1125 572.9597508645179 L 1126 573.2130301770852 L 1126 573.2130301770852 L 1127 573.4608003646305 L 1127 573.4608003646304 L 1128 573.70305340361 L 1128 573.70305340361 L 1129.0000000000002 573.9397814491427 L 1129.0000000000002 573.9397814491427 L 1130.0000000000002 574.1709768352628 L 1130.0000000000002 574.1709768352626 L 1130.9999999999998 574.3966320751686 L 1130.9999999999998 574.3966320751684 L 1132 574.6167398614652 L 1132 574.6167398614652 L 1133 574.8312930664013 L 1133 574.8312930664013 L 1134 575.040284742099 L 1134 575.040284742099 L 1135 575.2437081207796 L 1135 575.2437081207796 L 1136 575.4415566149829 L 1136 575.4415566149829 L 1137 575.63382381778 L 1137 575.6338238177799 L 1138 575.8205035029807 L 1138 575.8205035029807 L 1139 576.001589625336 L 1139 576.001589625336 L 1140 576.177076320733 L 1140 576.1770763207329 L 1141.0000000000002 576.3469579063849 L 1141.0000000000002 576.3469579063848 L 1142.0000000000002 576.5112288810153 L 1142.0000000000002 576.5112288810152 L 1143.0000000000002 576.6698839250364 L 1143.0000000000002 576.6698839250364 L 1144.0000000000002 576.8229179007212 L 1144.0000000000002 576.8229179007211 L 1145.0000000000002 576.9703258523693 L 1145.0000000000002 576.9703258523693 L 1146 577.1121030064684 L 1146 577.1121030064683 L 1147 577.248244771848 L 1147 577.2482447718479 L 1148 577.3787467398286 L 1148 577.3787467398286 L 1149 577.5036046843642 L 1149 577.5036046843641 L 1150 577.6228145621793 L 1150 577.6228145621792 L 1151 577.7363725128998 L 1151 577.7363725128997 L 1152 577.8442748591779 L 1152 577.8442748591779 L 1153 577.9465181068113 L 1153 577.9465181068113 L 1154.0000000000002 578.0430989448564 L 1154.0000000000002 578.0430989448563 L 1155.0000000000002 578.1340142457353 L 1155.0000000000002 578.1340142457352 L 1155.9999999999998 578.2192610653374 L 1155.9999999999998 578.2192610653373 L 1157 578.2988366431143 L 1157 578.2988366431142 L 1158 578.3727384021697 L 1158 578.3727384021697 L 1159 578.4409639493427 L 1159 578.4409639493426 L 1160 578.5035110752848 L 1160 578.5035110752848 L 1161 578.5603777545322 L 1161 578.5603777545322 L 1162 578.6115621455708 L 1162 578.6115621455707 L 1163 578.6570625908962 L 1163 578.6570625908961 L 1164 578.6968776170672 L 1164 578.6968776170672 L 1165 578.7310059347537 L 1165 578.7310059347536 L 1166.0000000000002 578.7594464387781 L 1166.0000000000002 578.759446438778 L 1167.0000000000002 578.7821982081514 L 1167.0000000000002 578.7821982081514 L 1168.0000000000002 578.799260506103 L 1168.0000000000002 578.799260506103 L 1169.0000000000002 578.8106327801044 L 1169.0000000000002 578.8106327801042 L 1170.0000000000002 578.816314661887 L 1170.0000000000002 578.8163059674546 L 1171 578.817021647641 L 1171 578.8163059674546 L 1172 578.8106066970887 L 1172 578.8106066970888 L 1173 578.7992170353489 L 1173 578.7992170353489 L 1174 578.7821373510664 L 1174 578.7821373510665 L 1175 578.759368197333 L 1175 578.759368197333 L 1176 578.7309103114821 L 1176 578.7309103114821 L 1177 578.6967646150658 L 1177 578.6967646150658 L 1178 578.6569322138242 L 1178 578.6569322138243 L 1179.0000000000002 578.6114143976504 L 1179.0000000000002 578.6114143976504 L 1180.0000000000002 578.5602126405478 L 1180.0000000000002 578.5602126405478 L 1180.9999999999998 578.5033286005834 L 1180.9999999999998 578.5033286005835 L 1182 578.4407641198333 L 1182 578.4407641198333 L 1183 578.3725212243235 L 1183 578.3725212243235 L 1184 578.2986021239639 L 1184 578.2986021239639 L 1185 578.2190092124772 L 1185 578.2190092124773 L 1186 578.1337450673213 L 1186 578.1337450673213 L 1187 578.0428124496053 L 1187 578.0428124496054 L 1188 577.9462143040007 L 1188 577.9462143040008 L 1189 577.843953758646 L 1189 577.843953758646 L 1190 577.7360341250445 L 1190 577.7360341250446 L 1191.0000000000002 577.6224588979588 L 1191.0000000000002 577.622458897959 L 1192.0000000000002 577.5032317552959 L 1192.0000000000002 577.503231755296 L 1193.0000000000002 577.3783565579892 L 1193.0000000000002 577.3783565579893 L 1194.0000000000002 577.2478373498727 L 1194.0000000000002 577.2478373498727 L 1195.0000000000002 577.1116783575507 L 1195.0000000000002 577.1116783575508 L 1196 576.9698839902607 L 1196 576.9698839902608 L 1197 576.8224588397304 L 1197 576.8224588397304 L 1198 576.6694076800293 L 1198 576.6694076800293 L 1199 576.510735467414 L 1199 576.5107354674141 L 1200 576.3464473401676 L 1200 576.3464473401677 L 1201 576.1765486184336 L 1201 576.1765486184336 L 1202 576.001044804043" stroke-opacity="0.8" stroke-linecap="round" stroke-linejoin="round" stroke-miterlimit="10" stroke-width="2.5"/><text fill="rgb(46,125,50)" stroke="none" font-family="geogebra-sans-serif, sans-serif" font-size="16px" font-style="normal" font-weight="normal" text-decoration="normal" x="24" y="573" text-anchor="start" dominant-baseline="alphabetic" fill-opacity="1">f</text><text fill="none" stroke="rgb(255,255,255)" font-family="geogebra-sans-serif, sans-serif" font-size="16px" font-style="normal" font-weight="normal" text-decoration="normal" x="24" y="573" text-anchor="start" dominant-baseline="alphabetic" stroke-opacity="1" stroke-linejoin="bevel" stroke-miterlimit="10" stroke-width="3">f</text><text fill="rgb(46,125,50)" stroke="none" font-family="geogebra-sans-serif, sans-serif" font-size="16px" font-style="normal" font-weight="normal" text-decoration="normal" x="24" y="573" text-anchor="start" dominant-baseline="alphabetic" fill-opacity="1">f</text></g></g></svg>